<svg xmlns="http://www.w3.org/2000/svg" xmlns:xlink="http://www.w3.org/1999/xlink" fill="#FF9182" version="1.1" x="0px" y="0px" viewBox="0 0 100 125" enable-background="new 0 0 100 100" xml:space="preserve"><path d="M50,1.5C23.257,1.5,1.5,23.257,1.5,50S23.257,98.5,50,98.5S98.5,76.743,98.5,50S76.743,1.5,50,1.5z M50,96.5  C24.36,96.5,3.5,75.641,3.5,50C3.5,24.36,24.36,3.5,50,3.5c25.641,0,46.5,20.86,46.5,46.5C96.5,75.641,75.641,96.5,50,96.5z"/><path d="M35.155,43.839c0.195,0.195,0.451,0.293,0.707,0.293s0.512-0.098,0.707-0.293c0.391-0.391,0.391-1.023,0-1.414l-6.39-6.39  l6.39-6.39c0.391-0.391,0.391-1.023,0-1.414s-1.023-0.391-1.414,0l-6.39,6.39l-6.39-6.39c-0.391-0.391-1.023-0.391-1.414,0  s-0.391,1.023,0,1.414l6.39,6.39l-6.39,6.39c-0.391,0.391-0.391,1.023,0,1.414c0.195,0.195,0.451,0.293,0.707,0.293  s0.512-0.098,0.707-0.293l6.39-6.39L35.155,43.839z"/><path d="M79.039,28.23c-0.391-0.391-1.023-0.391-1.414,0l-6.391,6.39l-6.391-6.39c-0.391-0.391-1.023-0.391-1.414,0  s-0.391,1.023,0,1.414l6.391,6.39l-6.391,6.39c-0.391,0.391-0.391,1.023,0,1.414c0.195,0.195,0.451,0.293,0.707,0.293  s0.512-0.098,0.707-0.293l6.391-6.39l6.391,6.39c0.195,0.195,0.451,0.293,0.707,0.293s0.512-0.098,0.707-0.293  c0.391-0.391,0.391-1.023,0-1.414l-6.391-6.39l6.391-6.39C79.43,29.254,79.43,28.621,79.039,28.23z"/><path d="M70.916,62.627H26.694c-0.552,0-1,0.447-1,1s0.448,1,1,1h23.782v7.079c0,5.159,3.897,9.356,8.688,9.356  c4.788,0,8.683-4.197,8.683-9.356v-7.079h3.07c0.553,0,1-0.447,1-1S71.469,62.627,70.916,62.627z M65.846,71.706  c0,4.057-2.998,7.356-6.683,7.356c-3.688,0-6.688-3.3-6.688-7.356v-7.079h13.37V71.706z"/><text x="0" y="115" fill="#000000" font-size="5px" font-weight="bold" font-family="'Helvetica Neue', Helvetica, Arial-Unicode, Arial, Sans-serif">Created by Noura Mbarki</text><text x="0" y="120" fill="#000000" font-size="5px" font-weight="bold" font-family="'Helvetica Neue', Helvetica, Arial-Unicode, Arial, Sans-serif">from the Noun Project</text></svg>